<?xml version="1.0" encoding="UTF-8" standalone="no"?>
<!DOCTYPE svg PUBLIC "-//W3C//DTD SVG 1.1//EN" "http://www.w3.org/Graphics/SVG/1.1/DTD/svg11.dtd">
<svg width="100%" height="100%" viewBox="0 0 800 800" version="1.1" xmlns="http://www.w3.org/2000/svg" xmlns:xlink="http://www.w3.org/1999/xlink" xml:space="preserve" xmlns:serif="http://www.serif.com/" style="fill-rule:evenodd;clip-rule:evenodd;stroke-linejoin:round;stroke-miterlimit:2;">
    <path d="M703.844,400.141C702.109,273.703 624.703,160.484 506.25,115.297C386.859,69.797 246.078,107.813 165.344,206.453C85,304.688 72.828,446.219 138.266,555.75C203.578,665.047 331.609,721.375 456.313,698.922C598.5,673.344 700.281,545.609 703.734,403.391C703.827,402.31 703.863,401.225 703.844,400.141ZM186.016,272.469C238.688,184.375 344.109,135.938 445.313,155.359C553.75,176.125 633.484,265.469 646.609,372.547L497.516,372.547C484.609,329.797 447.516,297.547 399.672,297.547C353.344,297.547 313.5,329.813 301.063,372.547L152.719,372.547C156.479,337.18 167.838,303.039 186.016,272.469ZM447.078,400.156C443.953,460.703 352.281,461.719 352.281,400.156C352.281,338.594 444.016,339.578 447.078,400.156ZM484.578,634.203C385.703,669.656 273.438,638.656 206.719,557.531C176.501,520.472 157.727,475.397 152.703,427.844L300.938,427.844C313.297,470.641 353.594,502.844 399.672,502.844C447.594,502.844 484.609,470.531 497.516,427.844L646.656,427.844C635.328,520.313 574.281,602.063 484.594,634.203L484.578,634.203Z" style="fill-opacity:0.11;fill-rule:nonzero;"/>
</svg>
